# xmcd
#
# Track frame offsets: 
#        150
#        36881
#        83580
#        119781
#        167184
#        224026
#        262801
#        280589
#
# Disc length: 4317 seconds
#
# Revision: 0
# Processed by: cddbd v1.5.2PL0 Copyright (c) Steve Scherf et al.
# Submitted via: ExactAudioCopy v1.3
#
DISCID=7110db08
DTITLE=Frank Ace - Live In England
DYEAR=2007
DGENRE=Blues
TTITLE0=Playing With My Friends
TTITLE1=Sick and Tired
TTITLE2=I've Got Love
TTITLE3=Get On Line, Baby
TTITLE4=Mind Your Own Business - Locked Out
TTITLE5=Bury The Bone
TTITLE6=Members Only
TTITLE7=Next Time You See Me - Every Day I Have The Blues
EXTD=
EXTT0=
EXTT1=
EXTT2=
EXTT3=
EXTT4=
EXTT5=
EXTT6=
EXTT7=
PLAYORDER=
